<mxfile host="app.diagrams.net" agent="Mozilla/5.0 (Macintosh; Intel Mac OS X 10_15_7) AppleWebKit/537.36 (KHTML, like Gecko) Chrome/132.0.0.0 Safari/537.36" version="26.0.9">
  <diagram name="Page-1" id="pm0IR2c2VKfhX5n9z775">
    <mxGraphModel grid="1" page="1" gridSize="10" guides="1" tooltips="1" connect="1" arrows="1" fold="1" pageScale="1" pageWidth="850" pageHeight="1100" math="0" shadow="0">
      <root>
        <mxCell id="0" />
        <mxCell id="1" parent="0" />
        <mxCell id="-x-plbMvuJMeYAzJJ8Mi-1" value="Development Account" style="points=[[0,0],[0.25,0],[0.5,0],[0.75,0],[1,0],[1,0.25],[1,0.5],[1,0.75],[1,1],[0.75,1],[0.5,1],[0.25,1],[0,1],[0,0.75],[0,0.5],[0,0.25]];outlineConnect=0;gradientColor=none;html=1;whiteSpace=wrap;fontSize=12;fontStyle=0;container=1;pointerEvents=0;collapsible=0;recursiveResize=0;shape=mxgraph.aws4.group;grIcon=mxgraph.aws4.group_account;strokeColor=#CD2264;fillColor=none;verticalAlign=top;align=left;spacingLeft=30;fontColor=#CD2264;dashed=0;" vertex="1" parent="1">
          <mxGeometry x="40" y="250" width="680" height="490" as="geometry" />
        </mxCell>
        <mxCell id="-x-plbMvuJMeYAzJJ8Mi-11" value="" style="rounded=0;whiteSpace=wrap;html=1;fillColor=none;" vertex="1" parent="-x-plbMvuJMeYAzJJ8Mi-1">
          <mxGeometry x="180" y="50" width="470" height="420" as="geometry" />
        </mxCell>
        <mxCell id="-x-plbMvuJMeYAzJJ8Mi-31" style="edgeStyle=orthogonalEdgeStyle;rounded=0;orthogonalLoop=1;jettySize=auto;html=1;entryX=0;entryY=0.5;entryDx=0;entryDy=0;" edge="1" parent="-x-plbMvuJMeYAzJJ8Mi-1" source="-x-plbMvuJMeYAzJJ8Mi-12" target="-x-plbMvuJMeYAzJJ8Mi-11">
          <mxGeometry relative="1" as="geometry" />
        </mxCell>
        <mxCell id="-x-plbMvuJMeYAzJJ8Mi-32" value="Manages" style="edgeLabel;html=1;align=center;verticalAlign=middle;resizable=0;points=[];" connectable="0" vertex="1" parent="-x-plbMvuJMeYAzJJ8Mi-31">
          <mxGeometry x="-0.0588" relative="1" as="geometry">
            <mxPoint as="offset" />
          </mxGeometry>
        </mxCell>
        <mxCell id="-x-plbMvuJMeYAzJJ8Mi-12" value="CloudFormation" style="sketch=0;points=[[0,0,0],[0.25,0,0],[0.5,0,0],[0.75,0,0],[1,0,0],[0,1,0],[0.25,1,0],[0.5,1,0],[0.75,1,0],[1,1,0],[0,0.25,0],[0,0.5,0],[0,0.75,0],[1,0.25,0],[1,0.5,0],[1,0.75,0]];points=[[0,0,0],[0.25,0,0],[0.5,0,0],[0.75,0,0],[1,0,0],[0,1,0],[0.25,1,0],[0.5,1,0],[0.75,1,0],[1,1,0],[0,0.25,0],[0,0.5,0],[0,0.75,0],[1,0.25,0],[1,0.5,0],[1,0.75,0]];outlineConnect=0;fontColor=#232F3E;fillColor=#E7157B;strokeColor=#ffffff;dashed=0;verticalLabelPosition=bottom;verticalAlign=top;align=center;html=1;fontSize=12;fontStyle=0;aspect=fixed;shape=mxgraph.aws4.resourceIcon;resIcon=mxgraph.aws4.cloudformation;" vertex="1" parent="-x-plbMvuJMeYAzJJ8Mi-1">
          <mxGeometry x="50" y="235" width="50" height="50" as="geometry" />
        </mxCell>
        <mxCell id="-x-plbMvuJMeYAzJJ8Mi-9" value="Public subnet" style="points=[[0,0],[0.25,0],[0.5,0],[0.75,0],[1,0],[1,0.25],[1,0.5],[1,0.75],[1,1],[0.75,1],[0.5,1],[0.25,1],[0,1],[0,0.75],[0,0.5],[0,0.25]];outlineConnect=0;gradientColor=none;html=1;whiteSpace=wrap;fontSize=12;fontStyle=0;container=1;pointerEvents=0;collapsible=0;recursiveResize=0;shape=mxgraph.aws4.group;grIcon=mxgraph.aws4.group_security_group;grStroke=0;strokeColor=#7AA116;fillColor=#F2F6E8;verticalAlign=top;align=left;spacingLeft=30;fontColor=#248814;dashed=0;" vertex="1" parent="-x-plbMvuJMeYAzJJ8Mi-1">
          <mxGeometry x="200" y="80" width="210" height="140" as="geometry" />
        </mxCell>
        <mxCell id="-x-plbMvuJMeYAzJJ8Mi-22" value="NAT Gateway" style="sketch=0;outlineConnect=0;fontColor=#232F3E;gradientColor=none;fillColor=#8C4FFF;strokeColor=none;dashed=0;verticalLabelPosition=bottom;verticalAlign=top;align=center;html=1;fontSize=12;fontStyle=0;aspect=fixed;pointerEvents=1;shape=mxgraph.aws4.nat_gateway;" vertex="1" parent="-x-plbMvuJMeYAzJJ8Mi-9">
          <mxGeometry x="30" y="40" width="50" height="50" as="geometry" />
        </mxCell>
        <mxCell id="-x-plbMvuJMeYAzJJ8Mi-8" value="Private subnet" style="points=[[0,0],[0.25,0],[0.5,0],[0.75,0],[1,0],[1,0.25],[1,0.5],[1,0.75],[1,1],[0.75,1],[0.5,1],[0.25,1],[0,1],[0,0.75],[0,0.5],[0,0.25]];outlineConnect=0;gradientColor=none;html=1;whiteSpace=wrap;fontSize=12;fontStyle=0;container=1;pointerEvents=0;collapsible=0;recursiveResize=0;shape=mxgraph.aws4.group;grIcon=mxgraph.aws4.group_security_group;grStroke=0;strokeColor=#00A4A6;fillColor=#E6F6F7;verticalAlign=top;align=left;spacingLeft=30;fontColor=#147EBA;dashed=0;" vertex="1" parent="-x-plbMvuJMeYAzJJ8Mi-1">
          <mxGeometry x="200" y="240" width="430" height="210" as="geometry" />
        </mxCell>
        <mxCell id="-x-plbMvuJMeYAzJJ8Mi-26" value="" style="rounded=0;whiteSpace=wrap;html=1;fillColor=none;" vertex="1" parent="-x-plbMvuJMeYAzJJ8Mi-8">
          <mxGeometry x="120" y="80" width="110" height="80" as="geometry" />
        </mxCell>
        <mxCell id="-x-plbMvuJMeYAzJJ8Mi-15" value="&amp;nbsp; &amp;nbsp; &amp;nbsp; ECS Cluster" style="sketch=0;points=[[0,0,0],[0.25,0,0],[0.5,0,0],[0.75,0,0],[1,0,0],[0,1,0],[0.25,1,0],[0.5,1,0],[0.75,1,0],[1,1,0],[0,0.25,0],[0,0.5,0],[0,0.75,0],[1,0.25,0],[1,0.5,0],[1,0.75,0]];outlineConnect=0;fontColor=#232F3E;fillColor=#ED7100;strokeColor=#ffffff;dashed=0;verticalLabelPosition=bottom;verticalAlign=top;align=center;html=1;fontSize=12;fontStyle=0;aspect=fixed;shape=mxgraph.aws4.resourceIcon;resIcon=mxgraph.aws4.ecs;" vertex="1" parent="-x-plbMvuJMeYAzJJ8Mi-8">
          <mxGeometry x="40" y="40" width="50" height="50" as="geometry" />
        </mxCell>
        <mxCell id="-x-plbMvuJMeYAzJJ8Mi-24" value="" style="rounded=0;whiteSpace=wrap;html=1;fillColor=none;" vertex="1" parent="-x-plbMvuJMeYAzJJ8Mi-8">
          <mxGeometry x="40" y="40" width="230" height="140" as="geometry" />
        </mxCell>
        <mxCell id="-x-plbMvuJMeYAzJJ8Mi-14" value="Fargate" style="sketch=0;points=[[0,0,0],[0.25,0,0],[0.5,0,0],[0.75,0,0],[1,0,0],[0,1,0],[0.25,1,0],[0.5,1,0],[0.75,1,0],[1,1,0],[0,0.25,0],[0,0.5,0],[0,0.75,0],[1,0.25,0],[1,0.5,0],[1,0.75,0]];outlineConnect=0;fontColor=#232F3E;fillColor=#ED7100;strokeColor=#ffffff;dashed=0;verticalLabelPosition=bottom;verticalAlign=top;align=center;html=1;fontSize=12;fontStyle=0;aspect=fixed;shape=mxgraph.aws4.resourceIcon;resIcon=mxgraph.aws4.fargate;" vertex="1" parent="-x-plbMvuJMeYAzJJ8Mi-8">
          <mxGeometry x="130" y="92.5" width="35" height="35" as="geometry" />
        </mxCell>
        <mxCell id="-x-plbMvuJMeYAzJJ8Mi-27" value="Fargate" style="sketch=0;points=[[0,0,0],[0.25,0,0],[0.5,0,0],[0.75,0,0],[1,0,0],[0,1,0],[0.25,1,0],[0.5,1,0],[0.75,1,0],[1,1,0],[0,0.25,0],[0,0.5,0],[0,0.75,0],[1,0.25,0],[1,0.5,0],[1,0.75,0]];outlineConnect=0;fontColor=#232F3E;fillColor=#ED7100;strokeColor=#ffffff;dashed=0;verticalLabelPosition=bottom;verticalAlign=top;align=center;html=1;fontSize=12;fontStyle=0;aspect=fixed;shape=mxgraph.aws4.resourceIcon;resIcon=mxgraph.aws4.fargate;" vertex="1" parent="-x-plbMvuJMeYAzJJ8Mi-8">
          <mxGeometry x="180" y="92.5" width="35" height="35" as="geometry" />
        </mxCell>
        <mxCell id="-x-plbMvuJMeYAzJJ8Mi-28" value="Auto Scaling" style="text;html=1;align=center;verticalAlign=middle;resizable=0;points=[];autosize=1;strokeColor=none;fillColor=none;" vertex="1" parent="-x-plbMvuJMeYAzJJ8Mi-8">
          <mxGeometry x="130" y="58" width="90" height="30" as="geometry" />
        </mxCell>
        <mxCell id="-x-plbMvuJMeYAzJJ8Mi-13" value="Application&lt;div&gt;Load&amp;nbsp;&lt;span style=&quot;background-color: transparent; color: light-dark(rgb(0, 0, 0), rgb(255, 255, 255));&quot;&gt;Balancer&lt;/span&gt;&lt;/div&gt;" style="outlineConnect=0;dashed=0;verticalLabelPosition=bottom;verticalAlign=top;align=center;html=1;shape=mxgraph.aws3.application_load_balancer;fillColor=#F58534;gradientColor=none;" vertex="1" parent="-x-plbMvuJMeYAzJJ8Mi-1">
          <mxGeometry x="330" y="120" width="50" height="50" as="geometry" />
        </mxCell>
        <mxCell id="-x-plbMvuJMeYAzJJ8Mi-17" style="edgeStyle=orthogonalEdgeStyle;rounded=0;orthogonalLoop=1;jettySize=auto;html=1;" edge="1" parent="-x-plbMvuJMeYAzJJ8Mi-1" source="-x-plbMvuJMeYAzJJ8Mi-16" target="-x-plbMvuJMeYAzJJ8Mi-13">
          <mxGeometry relative="1" as="geometry" />
        </mxCell>
        <mxCell id="-x-plbMvuJMeYAzJJ8Mi-16" value="Certificate&#xa;Manager" style="shape=image;verticalLabelPosition=bottom;verticalAlign=top;imageAspect=0;aspect=fixed;image=data:image/svg+xml,PD94bWwgdmVyc2lvbj0iMS4wIiBlbmNvZGluZz0iVVRGLTgiPz4KPHN2ZyB3aWR0aD0iNjRweCIgaGVpZ2h0PSI2NHB4IiB2aWV3Qm94PSIwIDAgNjQgNjQiIHZlcnNpb249IjEuMSIgeG1sbnM9Imh0dHA6Ly93d3cudzMub3JnLzIwMDAvc3ZnIiB4bWxuczp4bGluaz0iaHR0cDovL3d3dy53My5vcmcvMTk5OS94bGluayI+CiAgICA8dGl0bGU+SWNvbi1BcmNoaXRlY3R1cmUvNDgvQXJjaF9BV1MtQ2VydGlmaWNhdGUtTWFuYWdlcl80ODwvdGl0bGU+CiAgICA8ZyBpZD0iSWNvbi1BcmNoaXRlY3R1cmUvNDgvQXJjaF9BV1MtQ2VydGlmaWNhdGUtTWFuYWdlcl80OCIgc3Ryb2tlPSJub25lIiBzdHJva2Utd2lkdGg9IjEiIGZpbGw9Im5vbmUiIGZpbGwtcnVsZT0iZXZlbm9kZCI+CiAgICAgICAgPGcgaWQ9Ikljb24tQXJjaGl0ZWN0dXJlLUJHLzQ4L1NlY3VyaXR5LUlkZW50aXR5LUNvbXBsaWFuY2UiIGZpbGw9IiNERDM0NEMiPgogICAgICAgICAgICA8cmVjdCBpZD0iUmVjdGFuZ2xlIiB4PSIwIiB5PSIwIiB3aWR0aD0iNjQiIGhlaWdodD0iNjQiPjwvcmVjdD4KICAgICAgICA8L2c+CiAgICAgICAgPHBhdGggZD0iTTI4LjcyMiwzMC45ODEgQzI4Ljk0NiwzMS4yMTQgMjkuMDQyLDMxLjU0MSAyOC45ODMsMzEuODU4IEwyOC4zOTQsMzQuOTk4IEwzMS40ODYsMzMuMTQzIEMzMS42NDQsMzMuMDQ3IDMxLjgyMywzMyAzMiwzMyBDMzIuMTc4LDMzIDMyLjM1NywzMy4wNDcgMzIuNTE1LDMzLjE0MyBMMzUuNjA4LDM0Ljk5OCBMMzUuMDE4LDMxLjg1MiBDMzQuOTU4LDMxLjUzNSAzNS4wNTUsMzEuMjA5IDM1LjI3OSwzMC45NzYgTDM3Ljk0LDI4LjE5NyBMMzQuMzU1LDI3LjY2NSBDMzQuMDQxLDI3LjYxOCAzMy43NjksMjcuNDI2IDMzLjYxOSwyNy4xNDcgTDMxLjk5MiwyNC4xMDQgTDMwLjMyNSwyNy4xNTggQzMwLjE3NSwyNy40MzIgMjkuOTA2LDI3LjYyMSAyOS41OTYsMjcuNjY4IEwyNi4wNTcsMjguMjA0IEwyOC43MjIsMzAuOTgxIFogTTI2LjAxOCwzNi44MTUgTDI2LjkyMiwzMS45OTUgTDIzLjI3OSwyOC4xOTcgQzIzLjAyLDI3LjkyNyAyMi45MzMsMjcuNTM2IDIzLjA1NCwyNy4xODMgQzIzLjE3NCwyNi44MjkgMjMuNDgxLDI2LjU3MiAyMy44NTEsMjYuNTE2IEwyOC44MDYsMjUuNzY0IEwzMS4xMjIsMjEuNTIxIEMzMS4yOTgsMjEuMiAzMS42MzUsMjEgMzIsMjEgTDMyLjAwNCwyMSBDMzIuMzcxLDIxLjAwMiAzMi43MDgsMjEuMjA1IDMyLjg4MiwyMS41MjggTDM1LjE0NiwyNS43NiBMNDAuMTQ3LDI2LjUwMyBDNDAuNTE3LDI2LjU1OCA0MC44MjYsMjYuODE0IDQwLjk0NywyNy4xNjggQzQxLjA2OCwyNy41MjMgNDAuOTgxLDI3LjkxNCA0MC43MjIsMjguMTg0IEwzNy4wNzcsMzEuOTg4IEwzNy45ODMsMzYuODE2IEMzOC4wNTYsMzcuMjAzIDM3Ljg5NSwzNy41OTYgMzcuNTcyLDM3LjgyMSBDMzcuMjQ5LDM4LjA0NSAzNi44MjUsMzguMDYgMzYuNDg2LDM3Ljg1NyBMMzIsMzUuMTY2IEwyNy41MTUsMzcuODU3IEMyNy4zNTYsMzcuOTUzIDI3LjE3OCwzOCAyNywzOCBDMjYuOCwzOCAyNi42LDM3Ljk0IDI2LjQyOSwzNy44MjEgQzI2LjEwNiwzNy41OTYgMjUuOTQ1LDM3LjIwMyAyNi4wMTgsMzYuODE1IEwyNi4wMTgsMzYuODE1IFogTTEyLDE3LjAxNyBMNTEuOTk3LDE3LjAxNyBMNTEuOTk3LDEzIEwxMiwxMyBMMTIsMTcuMDE3IFogTTU0LDUyIEM1NCw1Mi4yNjUgNTMuODk1LDUyLjUyIDUzLjcwNyw1Mi43MDcgQzUzLjUyLDUyLjg5NSA1My4yNjYsNTMgNTMsNTMgTDQ4LDUzIEw0OCw1MSBMNTIsNTEgTDUxLjk5OCwxOS4wMTcgTDEyLDE5LjAxNyBMMTIsNTEgTDQxLDUxIEw0MSw1MyBMMTEsNTMgQzEwLjQ0OCw1MyAxMCw1Mi41NTIgMTAsNTIgTDEwLDEyIEMxMCwxMS40NDggMTAuNDQ4LDExIDExLDExIEw1Mi45OTcsMTEgQzUzLjU1LDExIDUzLjk5NywxMS40NDggNTMuOTk3LDEyIEw1NCw1MiBaIE0xOSw0NyBMMjQsNDcgTDI0LDQ1IEwxOSw0NSBMMTksNDcgWiBNMjcsNDcgTDM4LDQ3IEwzOCw0NSBMMjcsNDUgTDI3LDQ3IFogTTE5LDQyLjk5NyBMMjQsNDIuOTk3IEwyNCw0MC45OTcgTDE5LDQwLjk5NyBMMTksNDIuOTk3IFogTTI3LDQzIEw0NSw0MyBMNDUsNDEgTDI3LDQxIEwyNyw0MyBaIiBpZD0iQVdTLUNlcnRpZmljYXRlLU1hbmFnZXJfSWNvbl80OF9TcXVpZCIgZmlsbD0iI0ZGRkZGRiI+PC9wYXRoPgogICAgPC9nPgo8L3N2Zz4=;points=[[0,0],[1,0],[1,1],[0,1],[0,0.167],[0.167,0],[1,0.167],[0.167,1],[0,0.333],[0.333,0],[1,0.333],[0.333,1],[0,0.5],[0.5,0],[1,0.5],[0.5,1],[0,0.667],[0.667,0],[1,0.667],[0.667,1],[0,0.833],[0.833,0],[1,0.833],[0.833,1]]" vertex="1" parent="-x-plbMvuJMeYAzJJ8Mi-1">
          <mxGeometry x="450" y="120" width="50" height="50" as="geometry" />
        </mxCell>
        <mxCell id="-x-plbMvuJMeYAzJJ8Mi-21" value="Route53&lt;div&gt;Hosted Zone&lt;/div&gt;" style="sketch=0;points=[[0,0,0],[0.25,0,0],[0.5,0,0],[0.75,0,0],[1,0,0],[0,1,0],[0.25,1,0],[0.5,1,0],[0.75,1,0],[1,1,0],[0,0.25,0],[0,0.5,0],[0,0.75,0],[1,0.25,0],[1,0.5,0],[1,0.75,0]];outlineConnect=0;fontColor=#232F3E;fillColor=#8C4FFF;strokeColor=#ffffff;dashed=0;verticalLabelPosition=bottom;verticalAlign=top;align=center;html=1;fontSize=12;fontStyle=0;aspect=fixed;shape=mxgraph.aws4.resourceIcon;resIcon=mxgraph.aws4.route_53;" vertex="1" parent="-x-plbMvuJMeYAzJJ8Mi-1">
          <mxGeometry x="50" y="120" width="50" height="50" as="geometry" />
        </mxCell>
        <mxCell id="-x-plbMvuJMeYAzJJ8Mi-25" value="CloudWatch&lt;div&gt;Alarm&lt;/div&gt;" style="sketch=0;outlineConnect=0;fontColor=#232F3E;gradientColor=none;fillColor=#E7157B;strokeColor=none;dashed=0;verticalLabelPosition=bottom;verticalAlign=top;align=center;html=1;fontSize=12;fontStyle=0;aspect=fixed;pointerEvents=1;shape=mxgraph.aws4.alarm;" vertex="1" parent="-x-plbMvuJMeYAzJJ8Mi-1">
          <mxGeometry x="550" y="120" width="50" height="50" as="geometry" />
        </mxCell>
        <mxCell id="-x-plbMvuJMeYAzJJ8Mi-29" style="edgeStyle=orthogonalEdgeStyle;rounded=0;orthogonalLoop=1;jettySize=auto;html=1;entryX=0.826;entryY=0.571;entryDx=0;entryDy=0;entryPerimeter=0;" edge="1" parent="-x-plbMvuJMeYAzJJ8Mi-1" target="-x-plbMvuJMeYAzJJ8Mi-24">
          <mxGeometry relative="1" as="geometry">
            <mxPoint x="580" y="210" as="sourcePoint" />
            <Array as="points">
              <mxPoint x="580" y="360" />
            </Array>
          </mxGeometry>
        </mxCell>
        <mxCell id="-x-plbMvuJMeYAzJJ8Mi-30" value="Triggers&lt;div&gt;Scalability&lt;/div&gt;" style="edgeLabel;html=1;align=center;verticalAlign=middle;resizable=0;points=[];labelBackgroundColor=none;" connectable="0" vertex="1" parent="-x-plbMvuJMeYAzJJ8Mi-29">
          <mxGeometry x="-0.1661" relative="1" as="geometry">
            <mxPoint x="-40" y="25" as="offset" />
          </mxGeometry>
        </mxCell>
        <mxCell id="-x-plbMvuJMeYAzJJ8Mi-2" value="Shared Assets Account" style="points=[[0,0],[0.25,0],[0.5,0],[0.75,0],[1,0],[1,0.25],[1,0.5],[1,0.75],[1,1],[0.75,1],[0.5,1],[0.25,1],[0,1],[0,0.75],[0,0.5],[0,0.25]];outlineConnect=0;gradientColor=none;html=1;whiteSpace=wrap;fontSize=12;fontStyle=0;container=1;pointerEvents=0;collapsible=0;recursiveResize=0;shape=mxgraph.aws4.group;grIcon=mxgraph.aws4.group_account;strokeColor=#CD2264;fillColor=none;verticalAlign=top;align=left;spacingLeft=30;fontColor=#CD2264;dashed=0;" vertex="1" parent="1">
          <mxGeometry x="40" y="20" width="310" height="180" as="geometry" />
        </mxCell>
        <mxCell id="-x-plbMvuJMeYAzJJ8Mi-3" value="ECR" style="sketch=0;points=[[0,0,0],[0.25,0,0],[0.5,0,0],[0.75,0,0],[1,0,0],[0,1,0],[0.25,1,0],[0.5,1,0],[0.75,1,0],[1,1,0],[0,0.25,0],[0,0.5,0],[0,0.75,0],[1,0.25,0],[1,0.5,0],[1,0.75,0]];outlineConnect=0;fontColor=#232F3E;fillColor=#ED7100;strokeColor=#ffffff;dashed=0;verticalLabelPosition=bottom;verticalAlign=top;align=center;html=1;fontSize=12;fontStyle=0;aspect=fixed;shape=mxgraph.aws4.resourceIcon;resIcon=mxgraph.aws4.ecr;" vertex="1" parent="-x-plbMvuJMeYAzJJ8Mi-2">
          <mxGeometry x="210" y="60" width="50" height="50" as="geometry" />
        </mxCell>
        <mxCell id="-x-plbMvuJMeYAzJJ8Mi-4" value="CloudFormation" style="sketch=0;points=[[0,0,0],[0.25,0,0],[0.5,0,0],[0.75,0,0],[1,0,0],[0,1,0],[0.25,1,0],[0.5,1,0],[0.75,1,0],[1,1,0],[0,0.25,0],[0,0.5,0],[0,0.75,0],[1,0.25,0],[1,0.5,0],[1,0.75,0]];points=[[0,0,0],[0.25,0,0],[0.5,0,0],[0.75,0,0],[1,0,0],[0,1,0],[0.25,1,0],[0.5,1,0],[0.75,1,0],[1,1,0],[0,0.25,0],[0,0.5,0],[0,0.75,0],[1,0.25,0],[1,0.5,0],[1,0.75,0]];outlineConnect=0;fontColor=#232F3E;fillColor=#E7157B;strokeColor=#ffffff;dashed=0;verticalLabelPosition=bottom;verticalAlign=top;align=center;html=1;fontSize=12;fontStyle=0;aspect=fixed;shape=mxgraph.aws4.resourceIcon;resIcon=mxgraph.aws4.cloudformation;" vertex="1" parent="-x-plbMvuJMeYAzJJ8Mi-2">
          <mxGeometry x="50" y="60" width="50" height="50" as="geometry" />
        </mxCell>
        <mxCell id="-x-plbMvuJMeYAzJJ8Mi-5" style="edgeStyle=orthogonalEdgeStyle;rounded=0;orthogonalLoop=1;jettySize=auto;html=1;" edge="1" parent="-x-plbMvuJMeYAzJJ8Mi-2" source="-x-plbMvuJMeYAzJJ8Mi-4">
          <mxGeometry relative="1" as="geometry">
            <mxPoint x="190" y="85" as="targetPoint" />
          </mxGeometry>
        </mxCell>
        <mxCell id="-x-plbMvuJMeYAzJJ8Mi-6" value="Manages" style="edgeLabel;html=1;align=center;verticalAlign=middle;resizable=0;points=[];" connectable="0" vertex="1" parent="-x-plbMvuJMeYAzJJ8Mi-5">
          <mxGeometry x="0.2727" y="-3" relative="1" as="geometry">
            <mxPoint x="-10" y="-3" as="offset" />
          </mxGeometry>
        </mxCell>
        <mxCell id="-x-plbMvuJMeYAzJJ8Mi-18" value="" style="rounded=0;whiteSpace=wrap;html=1;fillColor=none;" vertex="1" parent="-x-plbMvuJMeYAzJJ8Mi-2">
          <mxGeometry x="190" y="45" width="90" height="90" as="geometry" />
        </mxCell>
      </root>
    </mxGraphModel>
  </diagram>
</mxfile>
